<svg width="363" height="363" viewBox="0 0 363 363" fill="none" xmlns="http://www.w3.org/2000/svg">
<path fill-rule="evenodd" clip-rule="evenodd" d="M181.499 0C281.672 0 363 81.3293 363 181.502C363 281.669 281.672 362.999 181.499 362.999C81.3279 362.999 0 281.669 0 181.502C0 81.3293 81.3279 0 181.499 0ZM181.499 61.8032C247.562 61.8032 301.195 115.438 301.195 181.502C301.195 247.562 247.562 301.197 181.499 301.197C115.438 301.197 61.8032 247.562 61.8032 181.502C61.8032 115.438 115.438 61.8032 181.499 61.8032Z" fill="#49796A"/>
<path d="M164.612 49.6936V14.5508H173.209L188.357 36.4694L181.586 32.524H185.8V14.5508H196.126V49.6936H187.626L172.405 27.4827L179.151 31.4281H174.938V49.6936H164.612Z" fill="#F5A75C"/>
<path d="M182.172 313.228C185.209 313.228 187.839 313.65 190.063 314.494C192.271 315.338 194 316.564 195.25 318.171C196.484 319.795 197.166 321.76 197.296 324.065L197.321 324.528H187.823L187.774 324.309C187.628 323.675 187.287 323.123 186.751 322.653C186.215 322.182 185.541 321.808 184.73 321.532C183.918 321.273 183.025 321.143 182.051 321.143C181.012 321.143 180.127 321.273 179.396 321.532C178.649 321.792 178.073 322.149 177.667 322.604C177.261 323.058 177.058 323.578 177.058 324.163V324.187C177.058 325.015 177.456 325.64 178.251 326.062C179.047 326.484 180.419 326.874 182.367 327.231L185.899 327.864C189.389 328.481 192.068 329.658 193.935 331.396C195.786 333.133 196.712 335.365 196.712 338.093V338.117C196.712 340.472 196.095 342.509 194.861 344.23C193.611 345.951 191.898 347.283 189.722 348.224C187.547 349.166 185.071 349.637 182.294 349.637C179.161 349.637 176.522 349.198 174.379 348.322C172.236 347.445 170.596 346.195 169.46 344.571C168.323 342.964 167.706 341.064 167.609 338.872L167.584 338.337H177.082L177.107 338.58C177.172 339.23 177.431 339.782 177.886 340.236C178.324 340.707 178.917 341.072 179.664 341.332C180.395 341.592 181.231 341.722 182.172 341.722C183.114 341.722 183.91 341.592 184.559 341.332C185.192 341.089 185.671 340.748 185.996 340.309C186.321 339.887 186.483 339.408 186.483 338.872V338.848C186.483 338.052 186.085 337.435 185.29 336.997C184.494 336.575 183.22 336.202 181.466 335.877L177.935 335.244C175.418 334.789 173.34 334.131 171.7 333.271C170.06 332.41 168.843 331.306 168.047 329.959C167.235 328.627 166.829 327.012 166.829 325.112V325.088C166.829 322.669 167.438 320.566 168.656 318.78C169.857 317.011 171.603 315.639 173.892 314.664C176.181 313.707 178.941 313.228 182.172 313.228Z" fill="#F5A75C"/>
<path d="M49.2038 192.79L22.317 199.609V189.502L40.4607 186.653V186.458L22.317 182.927V173.405L40.4607 169.824V169.63L22.317 166.78V156.917L49.2038 163.687V174.525L31.8881 178.275V178.47L49.2038 182.148V192.79Z" fill="#F5A75C"/>
<path d="M315.663 164.737H350.806V189.529H342.623V175.063H337.022V188.628H329.423V175.063H323.846V189.529H315.663V164.737Z" fill="#F5A75C"/>
</svg>
