<svg width="241" height="241" viewBox="0 0 241 241" fill="none" xmlns="http://www.w3.org/2000/svg">
<path d="M120.155 240.31C186.514 240.31 240.308 186.514 240.308 120.155C240.308 53.7958 186.514 0 120.155 0C53.7958 0 0 53.7958 0 120.155C0 186.514 53.7958 240.31 120.155 240.31Z" fill="#F5A75C"/>
<path fill-rule="evenodd" clip-rule="evenodd" d="M122.395 35.9219C122.395 35.9219 129.339 79.3276 133.122 102.985C133.721 106.719 132.652 110.526 130.198 113.405C127.744 116.282 124.153 117.939 120.371 117.939H120.368C116.587 117.939 112.996 116.282 110.542 113.405C108.088 110.526 107.02 106.719 107.617 102.985C111.402 79.3276 118.345 35.9219 118.345 35.9219H122.395Z" fill="black"/>
<path fill-rule="evenodd" clip-rule="evenodd" d="M120.37 0C120.37 0 136.741 24.4782 136.741 34.9694C136.741 44.0043 129.404 51.3376 120.37 51.3376C111.335 51.3376 104 44.0043 104 34.9694C104 24.4782 120.37 0 120.37 0Z" fill="#D80011"/>
<path d="M120.447 140.348C131.739 140.348 140.893 131.091 140.893 119.674C140.893 108.256 131.739 99 120.447 99C109.155 99 100 108.256 100 119.674C100 131.091 109.155 140.348 120.447 140.348Z" fill="#49796A"/>
</svg>
